<?xml version="1.0" encoding="utf-8"?>
<!-- Generator: Adobe Illustrator 28.1.0, SVG Export Plug-In . SVG Version: 6.00 Build 0)  -->
<svg version="1.1" id="Layer_1" xmlns="http://www.w3.org/2000/svg" xmlns:xlink="http://www.w3.org/1999/xlink" x="0px" y="0px"
	 viewBox="0 0 221.7 215.7" style="enable-background:new 0 0 221.7 215.7;" xml:space="preserve">
<style type="text/css">
	.st0{fill:#FFFFFF;stroke:#000000;stroke-miterlimit:10;}
	.st1{font-family:'Montserrat-Regular';}
	.st2{font-size:19.6704px;}
	.st3{fill:none;stroke:#000000;stroke-miterlimit:10;}
	.st4{font-size:19.6332px;}
	.st5{font-size:19.5882px;}
	.st6{font-size:19.4963px;}
	.st7{font-size:19.3629px;}
	.st8{font-size:19.2945px;}
	.st9{font-size:19.2379px;}
	.st10{font-size:19.2083px;}
	.st11{font-size:19.1931px;}
	.st12{font-size:19.203px;}
	.st13{font-size:19.2396px;}
	.st14{font-size:19.3015px;}
	.st15{font-size:19.3729px;}
	.st16{font-size:19.4355px;}
	.st17{font-size:19.5254px;}
	.st18{font-size:19.5994px;}
	.st19{font-size:19.6562px;}
	.st20{font-size:19.5231px;}
	.st21{font-size:19.6392px;}
	.st22{font-size:19.7847px;}
	.st23{font-size:20.0657px;}
	.st24{font-size:20.4726px;}
	.st25{font-size:20.6763px;}
	.st26{font-size:20.8412px;}
	.st27{font-size:20.9246px;}
	.st28{font-size:20.967px;}
	.st29{font-size:20.9372px;}
	.st30{font-size:20.8333px;}
	.st31{font-size:20.6496px;}
	.st32{font-size:20.4372px;}
	.st33{font-size:20.2279px;}
	.st34{fill:none;stroke:#000000;stroke-miterlimit:9.9728;}
	.st35{font-size:19.9761px;}
	.st36{font-size:19.7465px;}
	.st37{font-size:19.5655px;}
	.st38{fill:url(#SVGID_1_);stroke:#FFFFFF;stroke-miterlimit:10;}
	.st39{fill:url(#SVGID_00000124137099105417128820000014766674105320089229_);stroke:#FFFFFF;stroke-miterlimit:10;}
	.st40{fill:url(#SVGID_00000127032443752072364200000006404410069886080924_);stroke:#FFFFFF;stroke-miterlimit:10;}
	.st41{fill:url(#SVGID_00000038388966323409449420000011095837161562182792_);stroke:#05C6E5;stroke-miterlimit:10;}
	.st42{fill:url(#SVGID_00000034062488731286686290000016982551702491915684_);stroke:#05C6E5;stroke-miterlimit:10;}
</style>
<g id="bottom_x5F_text_00000054984507192178863120000012600864201184483218_">
	<text transform="matrix(-0.2755 0.938 -0.9633 -0.2684 187.3579 124.3712)" class="st0 st1 st2">V</text>
	<text transform="matrix(-0.2755 0.938 -0.9633 -0.2684 187.3579 124.3712)" class="st3 st1 st2">V</text>
	<text transform="matrix(-0.3854 0.9025 -0.9269 -0.3753 183.6427 136.1353)" class="st0 st1 st4">I</text>
	<text transform="matrix(-0.3854 0.9025 -0.9269 -0.3753 183.6427 136.1353)" class="st3 st1 st4">I</text>
	<text transform="matrix(-0.4897 0.8558 -0.8789 -0.477 181.5979 141.3599)" class="st0 st1 st5">E</text>
	<text transform="matrix(-0.4897 0.8558 -0.8789 -0.477 181.5979 141.3599)" class="st3 st1 st5">E</text>
	<text transform="matrix(-0.6494 0.7542 -0.7745 -0.6325 175.7251 152.0877)" class="st0 st1 st6">W</text>
	<text transform="matrix(-0.6494 0.7542 -0.7745 -0.6325 175.7251 152.0877)" class="st3 st1 st6">W</text>
	<text transform="matrix(-0.8338 0.5683 -0.5836 -0.812 158.8682 169.76)" class="st0 st1 st7">S</text>
	<text transform="matrix(-0.8338 0.5683 -0.5836 -0.812 158.8682 169.76)" class="st3 st1 st7">S</text>
	<text transform="matrix(-0.9156 0.441 -0.4529 -0.8916 147.9557 177.1286)" class="st0 st1 st8">E</text>
	<text transform="matrix(-0.9156 0.441 -0.4529 -0.8916 147.9557 177.1286)" class="st3 st1 st8">E</text>
	<text transform="matrix(-0.9784 0.2954 -0.3035 -0.9528 136.7561 182.5761)" class="st0 st1 st9">N</text>
	<text transform="matrix(-0.9784 0.2954 -0.3035 -0.9528 136.7561 182.5761)" class="st3 st1 st9">N</text>
	<text transform="matrix(-1.0095 0.1783 -0.1831 -0.9831 122.5342 186.5743)" class="st0 st1 st10">’</text>
	<text transform="matrix(-1.0095 0.1783 -0.1831 -0.9831 122.5342 186.5743)" class="st3 st1 st10">’</text>
	<text transform="matrix(-1.0245 6.743184e-02 -6.934755e-02 -0.9976 116.5506 187.7829)" class="st0 st1 st11">S</text>
	<text transform="matrix(-1.0245 6.743184e-02 -6.934755e-02 -0.9976 116.5506 187.7829)" class="st3 st1 st11">S</text>
	<text transform="matrix(-1.0144 -0.1517 0.1557 -0.9878 97.0816 188.342)" class="st0 st1 st12">P</text>
	<text transform="matrix(-1.0144 -0.1517 0.1557 -0.9878 97.0816 188.342)" class="st3 st1 st12">P</text>
	<text transform="matrix(-0.9757 -0.3038 0.3119 -0.9501 83.97 186.3839)" class="st0 st1 st13">R</text>
	<text transform="matrix(-0.9757 -0.3038 0.3119 -0.9501 83.97 186.3839)" class="st3 st1 st13">R</text>
	<text transform="matrix(-0.9056 -0.4594 0.4718 -0.8817 70.6609 182.2672)" class="st0 st1 st14">O</text>
	<text transform="matrix(-0.9056 -0.4594 0.4718 -0.8817 70.6609 182.2672)" class="st3 st1 st14">O</text>
	<text transform="matrix(-0.8197 -0.5868 0.6025 -0.7981 57.0637 175.1224)" class="st0 st1 st15">J</text>
	<text transform="matrix(-0.8197 -0.5868 0.6025 -0.7981 57.0637 175.1224)" class="st3 st1 st15">J</text>
	<text transform="matrix(-0.7268 -0.688 0.7065 -0.7077 48.3636 168.9232)" class="st0 st1 st16">E</text>
	<text transform="matrix(-0.7268 -0.688 0.7065 -0.7077 48.3636 168.9232)" class="st3 st1 st16">E</text>
	<text transform="matrix(-0.6005 -0.79 0.8112 -0.5847 39.3736 160.4758)" class="st0 st1 st17">C</text>
	<text transform="matrix(-0.6005 -0.79 0.8112 -0.5847 39.3736 160.4758)" class="st3 st1 st17">C</text>
	<text transform="matrix(-0.4607 -0.8704 0.8937 -0.4486 30.7566 148.8893)" class="st0 st1 st18">T</text>
	<text transform="matrix(-0.4607 -0.8704 0.8937 -0.4486 30.7566 148.8893)" class="st3 st1 st18">T</text>
	<text transform="matrix(-0.3157 -0.9267 0.9516 -0.3073 25.3185 138.6671)" class="st0 st1 st19">S</text>
	<text transform="matrix(-0.3157 -0.9267 0.9516 -0.3073 25.3185 138.6671)" class="st3 st1 st19">S</text>
</g>
<g id="top_x5F_text_00000125594904092851576970000009669324907298335414_">
	<text transform="matrix(0.29 -1.0283 0.9504 0.311 24.5352 100.839)" class="st0 st1 st20">V</text>
	<text transform="matrix(0.29 -1.0283 0.9504 0.311 24.5352 100.839)" class="st3 st1 st20">V</text>
	<text transform="matrix(0.3954 -0.9796 0.9051 0.4251 28.4124 88.0046)" class="st0 st1 st21">I</text>
	<text transform="matrix(0.3954 -0.9796 0.9051 0.4251 28.4124 88.0046)" class="st3 st1 st21">I</text>
	<text transform="matrix(0.4929 -0.9177 0.8476 0.5306 30.546 82.2672)" class="st0 st1 st22">E</text>
	<text transform="matrix(0.4929 -0.9177 0.8476 0.5306 30.546 82.2672)" class="st3 st1 st22">E</text>
	<text transform="matrix(0.6348 -0.79 0.7292 0.6843 36.5508 70.6124)" class="st0 st1 st23">W</text>
	<text transform="matrix(0.6348 -0.79 0.7292 0.6843 36.5508 70.6124)" class="st3 st1 st23">W</text>
	<text transform="matrix(0.7863 -0.5736 0.5287 0.8488 53.5682 51.4745)" class="st0 st1 st24">S</text>
	<text transform="matrix(0.7863 -0.5736 0.5287 0.8488 53.5682 51.4745)" class="st3 st1 st24">S</text>
	<text transform="matrix(0.8485 -0.4353 0.4006 0.9163 64.4909 43.5806)" class="st0 st1 st25">E</text>
	<text transform="matrix(0.8485 -0.4353 0.4006 0.9163 64.4909 43.5806)" class="st3 st1 st25">E</text>
	<text transform="matrix(0.8938 -0.2831 0.2597 0.9657 75.6737 37.7983)" class="st0 st1 st26">N</text>
	<text transform="matrix(0.8938 -0.2831 0.2597 0.9657 75.6737 37.7983)" class="st3 st1 st26">N</text>
	<text transform="matrix(0.915 -0.1639 0.1493 0.9888 89.802 33.6517)" class="st0 st1 st27">’</text>
	<text transform="matrix(0.915 -0.1639 0.1493 0.9888 89.802 33.6517)" class="st3 st1 st27">’</text>
	<text transform="matrix(0.9241 -5.238536e-02 4.619926e-02 0.9989 95.7933 32.4122)" class="st0 st1 st28">S</text>
	<text transform="matrix(0.9241 -5.238536e-02 4.619926e-02 0.9989 95.7933 32.4122)" class="st3 st1 st28">S</text>
	<text transform="matrix(0.9132 0.1664 -0.1561 0.9877 115.0985 32.142)" class="st0 st1 st29">P</text>
	<text transform="matrix(0.9132 0.1664 -0.1561 0.9877 115.0985 32.142)" class="st3 st1 st29">P</text>
	<text transform="matrix(0.8824 0.3193 -0.2975 0.9547 128.0252 34.4947)" class="st0 st1 st30">R</text>
	<text transform="matrix(0.8824 0.3193 -0.2975 0.9547 128.0252 34.4947)" class="st3 st1 st30">R</text>
	<text transform="matrix(0.8267 0.4804 -0.4463 0.8949 141.0788 39.1991)" class="st0 st1 st31">O</text>
	<text transform="matrix(0.8267 0.4804 -0.4463 0.8949 141.0788 39.1991)" class="st3 st1 st31">O</text>
	<text transform="matrix(0.7569 0.6172 -0.5727 0.8197 154.4296 47.2294)" class="st0 st1 st32">J</text>
	<text transform="matrix(0.7569 0.6172 -0.5727 0.8197 154.4296 47.2294)" class="st3 st1 st32">J</text>
	<text transform="matrix(0.6785 0.7309 -0.6777 0.7353 162.9477 54.1531)" class="st0 st1 st33">E</text>
	<text transform="matrix(0.6785 0.7309 -0.6777 0.7353 162.9477 54.1531)" class="st34 st1 st33">E</text>
	<text transform="matrix(0.5677 0.8503 -0.7879 0.6158 171.7361 63.5529)" class="st0 st1 st35">C</text>
	<text transform="matrix(0.5677 0.8503 -0.7879 0.6158 171.7361 63.5529)" class="st3 st1 st35">C</text>
	<text transform="matrix(0.4396 0.9487 -0.8786 0.4776 180.0822 76.3428)" class="st0 st1 st36">T</text>
	<text transform="matrix(0.4396 0.9487 -0.8786 0.4776 180.0822 76.3428)" class="st3 st1 st36">T</text>
	<text transform="matrix(0.3011 1.0205 -0.9447 0.328 185.3245 87.6195)" class="st0 st1 st37">S</text>
	<text transform="matrix(0.3011 1.0205 -0.9447 0.328 185.3245 87.6195)" class="st3 st1 st37">S</text>
</g>
<g id="arrow_00000012462518245938672020000012276280849822014849_">
	
		<linearGradient id="SVGID_1_" gradientUnits="userSpaceOnUse" x1="104.4626" y1="125.8148" x2="144.5708" y2="125.8148" gradientTransform="matrix(1 0 0 -1 0 218)">
		<stop  offset="0" style="stop-color:#FFFFFF"/>
		<stop  offset="1" style="stop-color:#000000"/>
	</linearGradient>
	<path class="st38" d="M109.8,76.4l33.4,25.5c1.4,1.1,1.8,3.4,1.1,4.9l0,0c-1.1,1.9-3.2,2.3-5,1.1l-33.4-25.5
		c-1.4-1.1-1.8-3.4-1.1-4.9l0,0C105.5,75.7,108,75.3,109.8,76.4z"/>
	
		<linearGradient id="SVGID_00000013875628717696189640000009221332741527955640_" gradientUnits="userSpaceOnUse" x1="108.8968" y1="96.65" x2="144.4237" y2="96.65" gradientTransform="matrix(1 0 0 -1 0 218)">
		<stop  offset="0" style="stop-color:#FFFFFF"/>
		<stop  offset="1" style="stop-color:#000000"/>
	</linearGradient>
	<path style="fill:url(#SVGID_00000013875628717696189640000009221332741527955640_);stroke:#FFFFFF;stroke-miterlimit:10;" d="
		M109.8,134.7l28.8-31.6c1.4-1.5,3.2-1.5,4.6-0.4l0,0c1.4,1.5,1.8,3.8,0.4,5.3l-28.8,31.6c-1.4,1.5-3.2,1.5-4.6,0.4l0,0
		C108.7,138.8,108.4,136.2,109.8,134.7z"/>
	
		<linearGradient id="SVGID_00000076593585235931950460000010373393451404093584_" gradientUnits="userSpaceOnUse" x1="74.6439" y1="112.25" x2="143.9" y2="112.25" gradientTransform="matrix(1 0 0 -1 0 218)">
		<stop  offset="0" style="stop-color:#FFFFFF"/>
		<stop  offset="1" style="stop-color:#000000"/>
	</linearGradient>
	<path style="fill:url(#SVGID_00000076593585235931950460000010373393451404093584_);stroke:#FFFFFF;stroke-miterlimit:10;" d="
		M78.2,100.4h60.7c2.5,0,5,1.9,5,4.2v2.7c0,1.9-2.1,3.8-4.6,3.8H78.6c-2.1,0-3.9-1.5-3.9-3.4v-3.8C74.3,101.9,76.1,100.4,78.2,100.4
		z"/>
</g>
<g id="circle">
	
		<linearGradient id="SVGID_00000163063587029717396710000017909220474244314558_" gradientUnits="userSpaceOnUse" x1="102.517" y1="107.7" x2="103.017" y2="107.7" gradientTransform="matrix(1 0 0 -1 0 218)">
		<stop  offset="0" style="stop-color:#FFFFFF"/>
		<stop  offset="1" style="stop-color:#000000"/>
	</linearGradient>
	
		<ellipse style="fill:url(#SVGID_00000163063587029717396710000017909220474244314558_);stroke:#05C6E5;stroke-miterlimit:10;" cx="196.8" cy="110.3" rx="3.9" ry="4.2"/>
	
		<linearGradient id="SVGID_00000182510161765919248460000001671578950422934669_" gradientUnits="userSpaceOnUse" x1="-77.0825" y1="107.3" x2="-76.5825" y2="107.3" gradientTransform="matrix(1 0 0 -1 0 218)">
		<stop  offset="0" style="stop-color:#FFFFFF"/>
		<stop  offset="1" style="stop-color:#000000"/>
	</linearGradient>
	
		<ellipse style="fill:url(#SVGID_00000182510161765919248460000001671578950422934669_);stroke:#05C6E5;stroke-miterlimit:10;" cx="17.2" cy="110.7" rx="3.9" ry="4.2"/>
</g>
</svg>
