<?xml version="1.0" encoding="utf-8"?>
<!-- Generator: Adobe Illustrator 28.1.0, SVG Export Plug-In . SVG Version: 6.00 Build 0)  -->
<svg version="1.1" id="Layer_1" xmlns="http://www.w3.org/2000/svg" xmlns:xlink="http://www.w3.org/1999/xlink" x="0px" y="0px"
	 viewBox="0 0 94.5 82.6" style="enable-background:new 0 0 94.5 82.6;" xml:space="preserve">
<style type="text/css">
	.st0{fill:none;stroke:#05C6E5;stroke-width:0.25;stroke-miterlimit:10;}
	.st1{font-family:'Montserrat-Regular';}
	.st2{font-size:8.2851px;}
	.st3{font-size:8.3061px;}
	.st4{font-size:8.3329px;}
	.st5{fill:none;stroke:#05C6E5;stroke-width:0.2499;stroke-miterlimit:9.9958;}
	.st6{font-size:8.3843px;}
	.st7{fill:none;stroke:#05C6E5;stroke-width:0.2501;stroke-miterlimit:10.0053;}
	.st8{font-size:8.4595px;}
	.st9{font-size:8.4974px;}
	.st10{font-size:8.5291px;}
	.st11{font-size:8.545px;}
	.st12{font-size:8.5526px;}
	.st13{font-size:8.5472px;}
	.st14{font-size:8.5273px;}
	.st15{font-size:8.492px;}
	.st16{fill:none;stroke:#05C6E5;stroke-width:0.2502;stroke-miterlimit:10.0061;}
	.st17{font-size:8.4522px;}
	.st18{fill:none;stroke:#05C6E5;stroke-width:0.25;stroke-miterlimit:10.001;}
	.st19{font-size:8.4098px;}
	.st20{fill:none;stroke:#05C6E5;stroke-width:0.2499;stroke-miterlimit:9.9957;}
	.st21{font-size:8.3665px;}
	.st22{fill:none;stroke:#05C6E5;stroke-width:0.2498;stroke-miterlimit:9.9907;}
	.st23{font-size:8.3238px;}
	.st24{font-size:8.2911px;}
	.st25{font-size:8.2962px;}
	.st26{font-size:8.2991px;}
	.st27{font-size:8.3033px;}
	.st28{font-size:8.3131px;}
	.st29{font-size:8.3305px;}
	.st30{font-size:8.34px;}
	.st31{font-size:8.3489px;}
	.st32{font-size:8.3539px;}
	.st33{font-size:8.3583px;}
	.st34{font-size:8.3606px;}
	.st35{font-size:8.3588px;}
	.st36{font-size:8.3534px;}
	.st37{font-size:8.3458px;}
	.st38{font-size:8.3377px;}
	.st39{font-size:8.3275px;}
	.st40{font-size:8.3174px;}
	.st41{font-size:8.3082px;}
	.st42{fill:url(#SVGID_1_);stroke:url(#SVGID_00000135674779590806906010000018009839011959099798_);stroke-miterlimit:10;}
	
		.st43{fill:url(#SVGID_00000183946122918197278290000013792273227219692424_);stroke:url(#SVGID_00000119816561757311617750000016780232648387359894_);stroke-miterlimit:10;}
	
		.st44{fill:url(#SVGID_00000120547633646814098000000005094384657452969864_);stroke:url(#SVGID_00000170969885772071562760000007894754601356867258_);stroke-miterlimit:10;}
	.st45{fill:url(#SVGID_00000050646499492914239030000014503671107327103674_);stroke:#05C6E5;stroke-miterlimit:10;}
	.st46{fill:url(#SVGID_00000183957389105657088100000015233554736457636232_);stroke:#05C6E5;stroke-miterlimit:10;}
</style>
<g id="bottom_x5F_text">
</g>
<g id="top_x5F_text">
</g>
<g id="bottom_x5F_text_00000054984507192178863120000012600864201184483218_">
	<text transform="matrix(-0.2833 0.99 -0.9562 -0.2928 83.0046 45.9419)" class="st0 st1 st2">V</text>
	<text transform="matrix(-0.3906 0.9473 -0.9148 -0.4039 81.4012 51.1731)" class="st0 st1 st3">I</text>
	<text transform="matrix(-0.4908 0.8922 -0.8615 -0.5077 80.52 53.4904)" class="st0 st1 st4">E</text>
	<text transform="matrix(-0.6403 0.7759 -0.749 -0.6625 78.0192 58.255)" class="st5 st1 st6">W</text>
	<text transform="matrix(-0.8054 0.5724 -0.5524 -0.8336 70.8767 66.0652)" class="st7 st1 st8">S</text>
	<text transform="matrix(-0.8756 0.4383 -0.4228 -0.9062 66.27 69.3055)" class="st0 st1 st9">E</text>
	<text transform="matrix(-0.9279 0.2885 -0.2781 -0.9605 61.5554 71.6937)" class="st0 st1 st10">N</text>
	<text transform="matrix(-0.9529 0.1698 -0.1635 -0.9865 55.5752 73.4187)" class="st0 st1 st11">’</text>
	<text transform="matrix(-0.9644 5.857935e-02 -5.606018e-02 -0.9984 53.0638 73.9296)" class="st0 st1 st12">S</text>
	<text transform="matrix(-0.954 -0.1607 0.1558 -0.9878 44.8988 74.1074)" class="st0 st1 st13">P</text>
	<text transform="matrix(-0.92 -0.314 0.3038 -0.9527 39.4119 73.185)" class="st0 st1 st14">R</text>
	<text transform="matrix(-0.8586 -0.4733 0.4577 -0.8891 33.8445 71.2956)" class="st0 st1 st15">O</text>
	<text transform="matrix(-0.7821 -0.6067 0.5864 -0.81 28.1741 68.0612)" class="st16 st1 st17">J</text>
	<text transform="matrix(-0.6976 -0.7152 0.6912 -0.7227 24.5568 65.2678)" class="st18 st1 st19">E</text>
	<text transform="matrix(-0.58 -0.8272 0.7993 -0.601 20.8219 61.4661)" class="st20 st1 st21">C</text>
	<text transform="matrix(-0.4464 -0.9176 0.8865 -0.4627 17.2566 56.2695)" class="st22 st1 st23">T</text>
	<text transform="matrix(-0.3047 -0.9821 0.9487 -0.3161 15.02 51.6913)" class="st0 st1 st24">S</text>
</g>
<g id="top_x5F_text_00000125594904092851576970000009669324907298335414_">
	<text transform="matrix(0.2919 -0.9644 0.9565 0.2917 13.0238 36.6253)" class="st0 st1 st25">V</text>
	<text transform="matrix(0.4002 -0.924 0.9161 0.401 14.685 31.5135)" class="st0 st1 st26">I</text>
	<text transform="matrix(0.5023 -0.8716 0.8638 0.5039 15.5911 29.2252)" class="st0 st1 st27">E</text>
	<text transform="matrix(0.6553 -0.76 0.7527 0.6583 18.1649 24.5817)" class="st0 st1 st28">W</text>
	<text transform="matrix(0.8265 -0.5619 0.5557 0.8314 25.441 16.9541)" class="st0 st1 st29">S</text>
	<text transform="matrix(0.8996 -0.4301 0.4247 0.9053 30.1116 13.8051)" class="st0 st1 st30">E</text>
	<text transform="matrix(0.9542 -0.2817 0.2773 0.9608 34.8966 11.5013)" class="st0 st1 st31">N</text>
	<text transform="matrix(0.9802 -0.1637 0.16 0.9871 40.9381 9.8514)" class="st0 st1 st32">’</text>
	<text transform="matrix(0.9914 -5.237519e-02 4.956367e-02 0.9988 43.5008 9.3545)" class="st0 st1 st33">S</text>
	<text transform="matrix(0.9781 0.1661 -0.1672 0.9859 51.7572 9.2473)" class="st0 st1 st34">P</text>
	<text transform="matrix(0.9405 0.3172 -0.3171 0.9484 57.2838 10.1827)" class="st0 st1 st35">R</text>
	<text transform="matrix(0.8739 0.4733 -0.4719 0.8817 62.8667 12.0599)" class="st0 st1 st36">O</text>
	<text transform="matrix(0.7927 0.6024 -0.5999 0.8001 68.5785 15.2602)" class="st0 st1 st37">J</text>
	<text transform="matrix(0.704 0.7068 -0.7032 0.711 72.2225 18.0234)" class="st0 st1 st38">E</text>
	<text transform="matrix(0.5824 0.813 -0.8083 0.5888 75.9782 21.7669)" class="st0 st1 st39">C</text>
	<text transform="matrix(0.4463 0.8977 -0.8921 0.4519 79.5489 26.864)" class="st0 st1 st40">T</text>
	<text transform="matrix(0.3033 0.9579 -0.9514 0.3079 81.7884 31.3558)" class="st0 st1 st41">S</text>
</g>
<g id="arrow_00000012462518245938672020000012276280849822014849_">
	
		<linearGradient id="SVGID_1_" gradientUnits="userSpaceOnUse" x1="-39.6173" y1="-64.2219" x2="-24.1828" y2="-64.2219" gradientTransform="matrix(0.9879 -0.155 -0.155 -0.9879 77.5683 -32.8694)">
		<stop  offset="0" style="stop-color:#FFFFFF"/>
		<stop  offset="0.1076" style="stop-color:#FBFFFF"/>
		<stop  offset="0.2047" style="stop-color:#F0FEFF"/>
		<stop  offset="0.2977" style="stop-color:#DEFCFF"/>
		<stop  offset="0.3883" style="stop-color:#C4F9FF"/>
		<stop  offset="0.477" style="stop-color:#A3F6FF"/>
		<stop  offset="0.5632" style="stop-color:#7BF2FF"/>
		<stop  offset="0.6229" style="stop-color:#5AEFFF"/>
		<stop  offset="0.9156" style="stop-color:#37BCFF"/>
		<stop  offset="0.9994" style="stop-color:#2CACFF"/>
	</linearGradient>
	
		<radialGradient id="SVGID_00000092414574762026871740000007096441139295140481_" cx="-31.8979" cy="-64.2219" r="8.1312" gradientTransform="matrix(0.9879 -0.155 -0.155 -0.9879 77.5683 -32.8694)" gradientUnits="userSpaceOnUse">
		<stop  offset="0" style="stop-color:#FFFFFF"/>
		<stop  offset="0.1076" style="stop-color:#FBFFFF"/>
		<stop  offset="0.2047" style="stop-color:#F0FEFF"/>
		<stop  offset="0.2977" style="stop-color:#DEFCFF"/>
		<stop  offset="0.3883" style="stop-color:#C4F9FF"/>
		<stop  offset="0.477" style="stop-color:#A3F6FF"/>
		<stop  offset="0.5632" style="stop-color:#7BF2FF"/>
		<stop  offset="0.6229" style="stop-color:#5AEFFF"/>
		<stop  offset="0.9156" style="stop-color:#37BCFF"/>
		<stop  offset="0.9994" style="stop-color:#2CACFF"/>
	</radialGradient>
	
		<path style="fill:url(#SVGID_1_);stroke:url(#SVGID_00000092414574762026871740000007096441139295140481_);stroke-miterlimit:10;" d="
		M49.8,29.3L64,39.4c0.6,0.5,0.8,1.4,0.5,2l0,0c-0.5,0.8-1.4,0.9-2.1,0.5L48.2,31.7c-0.6-0.5-0.8-1.4-0.5-2l0,0
		C48,29,49.1,28.8,49.8,29.3z"/>
	
		<linearGradient id="SVGID_00000095317709058745732440000009598593934877070993_" gradientUnits="userSpaceOnUse" x1="49.4461" y1="65.2813" x2="64.5624" y2="65.2813" gradientTransform="matrix(1 0 0 -1 0 112.3185)">
		<stop  offset="0" style="stop-color:#FFFFFF"/>
		<stop  offset="0.1076" style="stop-color:#FBFFFF"/>
		<stop  offset="0.2047" style="stop-color:#F0FEFF"/>
		<stop  offset="0.2977" style="stop-color:#DEFCFF"/>
		<stop  offset="0.3883" style="stop-color:#C4F9FF"/>
		<stop  offset="0.477" style="stop-color:#A3F6FF"/>
		<stop  offset="0.5632" style="stop-color:#7BF2FF"/>
		<stop  offset="0.6229" style="stop-color:#5AEFFF"/>
		<stop  offset="0.9156" style="stop-color:#37BCFF"/>
		<stop  offset="0.9994" style="stop-color:#2CACFF"/>
	</linearGradient>
	
		<radialGradient id="SVGID_00000173136497435449408950000008101021157825791152_" cx="56.9854" cy="65.2249" r="8.1424" gradientTransform="matrix(1 0 0 -1 0 112.3185)" gradientUnits="userSpaceOnUse">
		<stop  offset="0" style="stop-color:#FFFFFF"/>
		<stop  offset="0.1076" style="stop-color:#FBFFFF"/>
		<stop  offset="0.2047" style="stop-color:#F0FEFF"/>
		<stop  offset="0.2977" style="stop-color:#DEFCFF"/>
		<stop  offset="0.3883" style="stop-color:#C4F9FF"/>
		<stop  offset="0.477" style="stop-color:#A3F6FF"/>
		<stop  offset="0.5632" style="stop-color:#7BF2FF"/>
		<stop  offset="0.6229" style="stop-color:#5AEFFF"/>
		<stop  offset="0.9156" style="stop-color:#37BCFF"/>
		<stop  offset="0.9994" style="stop-color:#2CACFF"/>
	</radialGradient>
	
		<path style="fill:url(#SVGID_00000095317709058745732440000009598593934877070993_);stroke:url(#SVGID_00000173136497435449408950000008101021157825791152_);stroke-miterlimit:10;" d="
		M49.8,52.3L62,39.8c0.6-0.6,1.4-0.6,2-0.2l0,0c0.6,0.6,0.8,1.5,0.2,2.1L51.9,54.3c-0.6,0.6-1.4,0.6-2,0.2l0,0
		C49.4,54,49.2,52.9,49.8,52.3z"/>
	
		<linearGradient id="SVGID_00000150085079409605552400000015956847185006859683_" gradientUnits="userSpaceOnUse" x1="34.7957" y1="71.4578" x2="64.3094" y2="71.4578" gradientTransform="matrix(1 0 0 -1 0 112.3185)">
		<stop  offset="0" style="stop-color:#FFFFFF"/>
		<stop  offset="0.1076" style="stop-color:#FBFFFF"/>
		<stop  offset="0.2047" style="stop-color:#F0FEFF"/>
		<stop  offset="0.2977" style="stop-color:#DEFCFF"/>
		<stop  offset="0.3883" style="stop-color:#C4F9FF"/>
		<stop  offset="0.477" style="stop-color:#A3F6FF"/>
		<stop  offset="0.5632" style="stop-color:#7BF2FF"/>
		<stop  offset="0.6229" style="stop-color:#5AEFFF"/>
		<stop  offset="0.9156" style="stop-color:#37BCFF"/>
		<stop  offset="0.9994" style="stop-color:#2CACFF"/>
	</linearGradient>
	
		<radialGradient id="SVGID_00000181079030162717866260000003286906129508926613_" cx="-159.2106" cy="71.4578" r="8.6536" gradientTransform="matrix(1.2865 0 0 -1 254.3774 112.3185)" gradientUnits="userSpaceOnUse">
		<stop  offset="0" style="stop-color:#FFFFFF"/>
		<stop  offset="0.1076" style="stop-color:#FBFFFF"/>
		<stop  offset="0.2047" style="stop-color:#F0FEFF"/>
		<stop  offset="0.2977" style="stop-color:#DEFCFF"/>
		<stop  offset="0.3883" style="stop-color:#C4F9FF"/>
		<stop  offset="0.477" style="stop-color:#A3F6FF"/>
		<stop  offset="0.5632" style="stop-color:#7BF2FF"/>
		<stop  offset="0.6229" style="stop-color:#5AEFFF"/>
		<stop  offset="0.9156" style="stop-color:#37BCFF"/>
		<stop  offset="0.9994" style="stop-color:#2CACFF"/>
	</radialGradient>
	
		<path style="fill:url(#SVGID_00000150085079409605552400000015956847185006859683_);stroke:url(#SVGID_00000181079030162717866260000003286906129508926613_);stroke-miterlimit:10;" d="
		M36.4,38.8h25.8c1.1,0,2.1,0.8,2.1,1.7v1.1c0,0.8-0.9,1.5-2,1.5H36.6c-0.9,0-1.7-0.6-1.7-1.4v-1.5C34.8,39.4,35.5,38.8,36.4,38.8z"
		/>
</g>
<g id="circle">
	
		<linearGradient id="SVGID_00000081630125255560294700000015725767412041682053_" gradientUnits="userSpaceOnUse" x1="46.5471" y1="41.3624" x2="46.7587" y2="41.3624">
		<stop  offset="0" style="stop-color:#FFFFFF"/>
		<stop  offset="1" style="stop-color:#000000"/>
	</linearGradient>
	
		<ellipse style="fill:url(#SVGID_00000081630125255560294700000015725767412041682053_);stroke:#05C6E5;stroke-miterlimit:10;" cx="10.4" cy="41.4" rx="1.7" ry="1.7"/>
	<g id="circle_00000181071134840204188240000010257375332922757255_">
		
			<linearGradient id="SVGID_00000093149616895382124420000009221122476329230245_" gradientUnits="userSpaceOnUse" x1="122.562" y1="41.2796" x2="122.7737" y2="41.2796">
			<stop  offset="0" style="stop-color:#FFFFFF"/>
			<stop  offset="1" style="stop-color:#000000"/>
		</linearGradient>
		
			<ellipse style="fill:url(#SVGID_00000093149616895382124420000009221122476329230245_);stroke:#05C6E5;stroke-miterlimit:10;" cx="86.4" cy="41.3" rx="1.7" ry="1.7"/>
	</g>
</g>
</svg>
