<svg xmlns="http://www.w3.org/2000/svg" xmlns:xlink="http://www.w3.org/1999/xlink" width="500" zoomAndPan="magnify" viewBox="0 0 375 374.999991" height="500" preserveAspectRatio="xMidYMid meet" version="1.0"><defs><g/></defs><g fill="#52554b" fill-opacity="1"><g transform="translate(161.549055, 219.155033)"><g><path d="M 117.445312 -60.355469 L 83.914062 -60.355469 C 83.570312 -60.355469 83.398438 -60.011719 83.398438 -59.667969 C 83.398438 -59.496094 83.570312 -59.152344 83.914062 -59.152344 C 87.867188 -59.152344 91.136719 -55.882812 91.136719 -51.929688 L 91.136719 -3.265625 C 91.136719 -3.09375 91.136719 -2.921875 91.308594 -2.75 C 91.480469 -2.75 91.652344 -2.578125 91.652344 -2.578125 C 91.824219 -2.578125 91.824219 -2.75 91.996094 -2.75 C 98.871094 -6.019531 104.890625 -10.660156 110.222656 -16.507812 C 110.222656 -16.679688 110.222656 -16.851562 110.222656 -16.851562 L 110.222656 -51.929688 C 110.222656 -55.882812 113.488281 -59.152344 117.445312 -59.152344 C 117.789062 -59.152344 117.960938 -59.496094 117.960938 -59.667969 C 117.960938 -60.011719 117.789062 -60.355469 117.445312 -60.355469 Z M 66.890625 1.890625 C 45.738281 1.890625 28.542969 -25.792969 28.542969 -59.839844 C 28.542969 -93.886719 45.738281 -121.570312 66.890625 -121.570312 C 74.972656 -121.570312 82.710938 -119.851562 90.273438 -116.410156 C 91.308594 -115.894531 92.339844 -115.378906 93.371094 -114.863281 C 93.542969 -114.863281 93.542969 -114.863281 93.542969 -114.691406 C 101.453125 -110.222656 109.191406 -101.109375 109.191406 -96.636719 C 109.191406 -96.292969 109.363281 -95.949219 109.707031 -95.949219 C 110.050781 -95.949219 110.222656 -96.292969 110.222656 -96.636719 L 110.222656 -119.507812 C 110.222656 -119.851562 110.050781 -120.195312 109.707031 -120.195312 C 109.363281 -120.195312 109.191406 -119.851562 109.191406 -119.507812 C 109.191406 -117.101562 107.984375 -115.035156 105.921875 -113.832031 C 103.34375 -112.285156 99.558594 -112.800781 95.605469 -115.035156 L 94.917969 -115.378906 C 94.746094 -115.550781 94.402344 -115.722656 94.230469 -115.722656 C 94.058594 -115.894531 94.058594 -115.894531 94.058594 -115.894531 C 92.855469 -116.582031 91.824219 -117.101562 90.789062 -117.445312 C 90.789062 -117.445312 90.617188 -117.617188 90.617188 -117.617188 C 83.054688 -121.054688 75.144531 -122.773438 66.890625 -122.773438 C 33.875 -122.773438 7.222656 -94.574219 7.222656 -59.839844 C 7.222656 -25.105469 33.875 3.09375 66.890625 3.09375 C 67.0625 3.09375 67.40625 2.921875 67.40625 2.578125 C 67.40625 2.234375 67.0625 1.890625 66.890625 1.890625 Z M 66.890625 1.890625 "/></g></g></g><g fill="#243f4d" fill-opacity="1"><g transform="translate(115.756432, 240.511448)"><g><path d="M 3.546875 0.0625 C 2.941406 0.0625 2.363281 -0.03125 1.8125 -0.21875 C 1.269531 -0.414062 0.847656 -0.671875 0.546875 -0.984375 L 0.875 -1.640625 C 1.164062 -1.347656 1.550781 -1.109375 2.03125 -0.921875 C 2.519531 -0.742188 3.023438 -0.65625 3.546875 -0.65625 C 4.265625 -0.65625 4.804688 -0.785156 5.171875 -1.046875 C 5.535156 -1.316406 5.71875 -1.664062 5.71875 -2.09375 C 5.71875 -2.414062 5.617188 -2.671875 5.421875 -2.859375 C 5.222656 -3.054688 4.976562 -3.207031 4.6875 -3.3125 C 4.40625 -3.414062 4.015625 -3.53125 3.515625 -3.65625 C 2.898438 -3.800781 2.410156 -3.945312 2.046875 -4.09375 C 1.691406 -4.238281 1.382812 -4.457031 1.125 -4.75 C 0.863281 -5.039062 0.734375 -5.4375 0.734375 -5.9375 C 0.734375 -6.34375 0.84375 -6.710938 1.0625 -7.046875 C 1.28125 -7.378906 1.609375 -7.644531 2.046875 -7.84375 C 2.492188 -8.050781 3.050781 -8.15625 3.71875 -8.15625 C 4.175781 -8.15625 4.625 -8.085938 5.0625 -7.953125 C 5.507812 -7.828125 5.894531 -7.65625 6.21875 -7.4375 L 5.9375 -6.75 C 5.59375 -6.976562 5.226562 -7.144531 4.84375 -7.25 C 4.457031 -7.363281 4.082031 -7.421875 3.71875 -7.421875 C 3.007812 -7.421875 2.472656 -7.285156 2.109375 -7.015625 C 1.753906 -6.742188 1.578125 -6.390625 1.578125 -5.953125 C 1.578125 -5.628906 1.675781 -5.367188 1.875 -5.171875 C 2.070312 -4.984375 2.316406 -4.835938 2.609375 -4.734375 C 2.910156 -4.628906 3.3125 -4.515625 3.8125 -4.390625 C 4.40625 -4.242188 4.882812 -4.097656 5.25 -3.953125 C 5.613281 -3.804688 5.921875 -3.585938 6.171875 -3.296875 C 6.429688 -3.015625 6.5625 -2.628906 6.5625 -2.140625 C 6.5625 -1.734375 6.453125 -1.359375 6.234375 -1.015625 C 6.015625 -0.679688 5.675781 -0.414062 5.21875 -0.21875 C 4.757812 -0.03125 4.203125 0.0625 3.546875 0.0625 Z M 3.546875 0.0625 "/></g></g></g><g fill="#243f4d" fill-opacity="1"><g transform="translate(126.530595, 240.511448)"><g><path d="M 7.03125 -0.734375 L 7.03125 0 L 1.3125 0 L 1.3125 -8.078125 L 6.859375 -8.078125 L 6.859375 -7.34375 L 2.171875 -7.34375 L 2.171875 -4.46875 L 6.34375 -4.46875 L 6.34375 -3.734375 L 2.171875 -3.734375 L 2.171875 -0.734375 Z M 7.03125 -0.734375 "/></g></g></g><g fill="#243f4d" fill-opacity="1"><g transform="translate(137.927442, 240.511448)"><g><path d="M 8.078125 -8.078125 L 8.078125 0 L 7.359375 0 L 2.171875 -6.5625 L 2.171875 0 L 1.3125 0 L 1.3125 -8.078125 L 2.015625 -8.078125 L 7.234375 -1.53125 L 7.234375 -8.078125 Z M 8.078125 -8.078125 "/></g></g></g><g fill="#243f4d" fill-opacity="1"><g transform="translate(150.984769, 240.511448)"><g><path d="M 6.390625 -2.15625 L 1.875 -2.15625 L 0.90625 0 L 0.015625 0 L 3.71875 -8.078125 L 4.5625 -8.078125 L 8.25 0 L 7.359375 0 Z M 6.078125 -2.859375 L 4.140625 -7.1875 L 2.1875 -2.859375 Z M 6.078125 -2.859375 "/></g></g></g><g fill="#243f4d" fill-opacity="1"><g transform="translate(162.93511, 240.511448)"><g><path d="M 1.3125 -8.078125 L 2.171875 -8.078125 L 2.171875 0 L 1.3125 0 Z M 1.3125 -8.078125 "/></g></g></g><g fill="#243f4d" fill-opacity="1"><g transform="translate(170.100015, 240.511448)"><g><path d="M 2.890625 -7.34375 L 0.046875 -7.34375 L 0.046875 -8.078125 L 6.578125 -8.078125 L 6.578125 -7.34375 L 3.734375 -7.34375 L 3.734375 0 L 2.890625 0 Z M 2.890625 -7.34375 "/></g></g></g><g fill="#243f4d" fill-opacity="1"><g transform="translate(180.401402, 240.511448)"><g/></g></g><g fill="#243f4d" fill-opacity="1"><g transform="translate(187.105064, 240.511448)"><g><path d="M 7.015625 -4.046875 L 7.828125 -4.046875 L 7.828125 -0.953125 C 7.453125 -0.628906 7.003906 -0.378906 6.484375 -0.203125 C 5.972656 -0.0234375 5.429688 0.0625 4.859375 0.0625 C 4.054688 0.0625 3.328125 -0.113281 2.671875 -0.46875 C 2.023438 -0.820312 1.515625 -1.3125 1.140625 -1.9375 C 0.773438 -2.5625 0.59375 -3.265625 0.59375 -4.046875 C 0.59375 -4.816406 0.773438 -5.515625 1.140625 -6.140625 C 1.515625 -6.773438 2.023438 -7.269531 2.671875 -7.625 C 3.328125 -7.976562 4.0625 -8.15625 4.875 -8.15625 C 5.488281 -8.15625 6.050781 -8.054688 6.5625 -7.859375 C 7.082031 -7.660156 7.519531 -7.367188 7.875 -6.984375 L 7.34375 -6.4375 C 6.707031 -7.070312 5.894531 -7.390625 4.90625 -7.390625 C 4.25 -7.390625 3.65625 -7.242188 3.125 -6.953125 C 2.601562 -6.671875 2.191406 -6.269531 1.890625 -5.75 C 1.585938 -5.238281 1.4375 -4.671875 1.4375 -4.046875 C 1.4375 -3.410156 1.585938 -2.835938 1.890625 -2.328125 C 2.191406 -1.828125 2.601562 -1.425781 3.125 -1.125 C 3.65625 -0.832031 4.242188 -0.6875 4.890625 -0.6875 C 5.722656 -0.6875 6.429688 -0.894531 7.015625 -1.3125 Z M 7.015625 -4.046875 "/></g></g></g><g fill="#243f4d" fill-opacity="1"><g transform="translate(199.701152, 240.511448)"><g><path d="M 8.078125 -8.078125 L 8.078125 0 L 7.234375 0 L 7.234375 -3.734375 L 2.171875 -3.734375 L 2.171875 0 L 1.3125 0 L 1.3125 -8.078125 L 2.171875 -8.078125 L 2.171875 -4.484375 L 7.234375 -4.484375 L 7.234375 -8.078125 Z M 8.078125 -8.078125 "/></g></g></g><g fill="#243f4d" fill-opacity="1"><g transform="translate(212.758483, 240.511448)"><g><path d="M 1.3125 -8.078125 L 2.171875 -8.078125 L 2.171875 0 L 1.3125 0 Z M 1.3125 -8.078125 "/></g></g></g><g fill="#243f4d" fill-opacity="1"><g transform="translate(219.923388, 240.511448)"><g><path d="M 6.828125 0 L 4.984375 -2.59375 C 4.773438 -2.570312 4.5625 -2.5625 4.34375 -2.5625 L 2.171875 -2.5625 L 2.171875 0 L 1.3125 0 L 1.3125 -8.078125 L 4.34375 -8.078125 C 5.375 -8.078125 6.179688 -7.832031 6.765625 -7.34375 C 7.347656 -6.851562 7.640625 -6.175781 7.640625 -5.3125 C 7.640625 -4.675781 7.476562 -4.140625 7.15625 -3.703125 C 6.84375 -3.273438 6.390625 -2.960938 5.796875 -2.765625 L 7.765625 0 Z M 4.3125 -3.296875 C 5.113281 -3.296875 5.726562 -3.472656 6.15625 -3.828125 C 6.582031 -4.179688 6.796875 -4.675781 6.796875 -5.3125 C 6.796875 -5.96875 6.582031 -6.46875 6.15625 -6.8125 C 5.726562 -7.164062 5.113281 -7.34375 4.3125 -7.34375 L 2.171875 -7.34375 L 2.171875 -3.296875 Z M 4.3125 -3.296875 "/></g></g></g><g fill="#243f4d" fill-opacity="1"><g transform="translate(231.942922, 240.511448)"><g><path d="M 9.703125 -8.078125 L 9.703125 0 L 8.890625 0 L 8.890625 -6.46875 L 5.71875 -1.03125 L 5.3125 -1.03125 L 2.140625 -6.4375 L 2.140625 0 L 1.3125 0 L 1.3125 -8.078125 L 2.015625 -8.078125 L 5.53125 -2.09375 L 9 -8.078125 Z M 9.703125 -8.078125 "/></g></g></g><g fill="#243f4d" fill-opacity="1"><g transform="translate(246.637685, 240.511448)"><g><path d="M 6.390625 -2.15625 L 1.875 -2.15625 L 0.90625 0 L 0.015625 0 L 3.71875 -8.078125 L 4.5625 -8.078125 L 8.25 0 L 7.359375 0 Z M 6.078125 -2.859375 L 4.140625 -7.1875 L 2.1875 -2.859375 Z M 6.078125 -2.859375 "/></g></g></g><g fill="#243f4d" fill-opacity="1"><g transform="translate(258.588028, 240.511448)"><g><path d="M 4.09375 -2.796875 L 4.09375 0 L 3.25 0 L 3.25 -2.796875 L 0.015625 -8.078125 L 0.921875 -8.078125 L 3.6875 -3.546875 L 6.46875 -8.078125 L 7.328125 -8.078125 Z M 4.09375 -2.796875 "/></g></g></g><g fill="#52554b" fill-opacity="1"><g transform="translate(95.971104, 218.884414)"><g><path d="M 69.128906 -58.875 L 33.417969 -84.691406 C 27.050781 -88.757812 23.160156 -95.652344 23.160156 -102.722656 C 23.160156 -115.277344 32.355469 -124.648438 44.910156 -125 C 45.085938 -125 45.4375 -125 45.617188 -125 C 51.097656 -125 56.578125 -123.761719 61.527344 -121.464844 C 61.703125 -121.289062 62.058594 -121.289062 62.414062 -121.113281 C 73.375 -115.453125 80.09375 -104.84375 80.09375 -93.351562 C 80.09375 -93 80.445312 -92.644531 80.800781 -92.644531 C 80.976562 -92.644531 81.332031 -93 81.332031 -93.351562 L 81.332031 -122.878906 C 81.332031 -123.234375 80.976562 -123.585938 80.800781 -123.585938 C 80.445312 -123.585938 80.09375 -123.234375 80.09375 -122.878906 C 80.09375 -120.402344 79.5625 -118.8125 78.324219 -118.105469 C 75.496094 -116.335938 69.308594 -118.988281 62.941406 -122.171875 C 62.589844 -122.347656 62.234375 -122.527344 62.058594 -122.527344 C 61.882812 -122.527344 61.882812 -122.527344 61.882812 -122.527344 C 56.929688 -125 51.273438 -126.238281 45.617188 -126.238281 C 45.4375 -126.238281 45.085938 -126.238281 44.910156 -126.238281 C 35.539062 -126.0625 26.699219 -122.527344 20.15625 -116.335938 C 13.613281 -110.148438 9.902344 -102.015625 9.902344 -93.351562 C 9.902344 -82.566406 15.734375 -72.3125 25.460938 -66.300781 L 61.882812 -40.132812 C 69.308594 -35.890625 73.726562 -28.820312 73.726562 -21.039062 C 73.726562 -8.488281 62.589844 1.589844 48.269531 1.945312 C 48.089844 1.945312 47.738281 1.945312 47.558594 1.945312 C 40.664062 1.945312 33.945312 0.355469 27.933594 -2.828125 C 27.757812 -2.828125 27.757812 -3.003906 27.582031 -3.003906 L 27.226562 -3.183594 C 16.621094 -9.371094 10.078125 -19.625 10.078125 -30.765625 C 10.078125 -31.117188 9.902344 -31.292969 9.546875 -31.292969 C 9.195312 -31.292969 9.015625 -31.117188 9.015625 -30.765625 L 9.015625 0.175781 C 9.015625 0.355469 9.195312 0.707031 9.546875 0.707031 C 9.902344 0.707031 10.078125 0.355469 10.078125 0.175781 C 10.078125 -3.183594 10.785156 -5.304688 12.375 -6.1875 C 15.207031 -7.957031 21.570312 -4.949219 26.699219 -2.121094 L 26.875 -1.945312 C 27.050781 -1.945312 27.226562 -1.769531 27.40625 -1.769531 C 33.417969 1.589844 40.488281 3.183594 47.558594 3.183594 C 47.738281 3.183594 48.089844 3.183594 48.269531 3.183594 C 48.445312 3.183594 48.445312 3.183594 48.445312 3.183594 C 58.523438 3.003906 68.070312 -0.53125 75.140625 -6.894531 C 82.214844 -13.261719 86.105469 -21.746094 86.105469 -30.765625 C 86.105469 -42.078125 79.738281 -52.6875 69.128906 -58.875 Z M 69.128906 -58.875 "/></g></g></g></svg>