<svg xmlns="http://www.w3.org/2000/svg" xmlns:xlink="http://www.w3.org/1999/xlink" width="500" zoomAndPan="magnify" viewBox="0 0 375 374.999991" height="500" preserveAspectRatio="xMidYMid meet" version="1.0"><defs><g/></defs><g fill="#eba9d1" fill-opacity="1"><g transform="translate(153.307612, 272.657759)"><g><path d="M 110.242188 -56.652344 L 78.765625 -56.652344 C 78.445312 -56.652344 78.28125 -56.332031 78.28125 -56.007812 C 78.28125 -55.847656 78.445312 -55.523438 78.765625 -55.523438 C 82.480469 -55.523438 85.546875 -52.457031 85.546875 -48.746094 L 85.546875 -3.066406 C 85.546875 -2.90625 85.546875 -2.742188 85.707031 -2.582031 C 85.867188 -2.582031 86.03125 -2.421875 86.03125 -2.421875 C 86.191406 -2.421875 86.191406 -2.582031 86.351562 -2.582031 C 92.808594 -5.648438 98.457031 -10.007812 103.460938 -15.496094 C 103.460938 -15.65625 103.460938 -15.816406 103.460938 -15.816406 L 103.460938 -48.746094 C 103.460938 -52.457031 106.527344 -55.523438 110.242188 -55.523438 C 110.5625 -55.523438 110.726562 -55.847656 110.726562 -56.007812 C 110.726562 -56.332031 110.5625 -56.652344 110.242188 -56.652344 Z M 62.789062 1.777344 C 42.933594 1.777344 26.792969 -24.210938 26.792969 -56.167969 C 26.792969 -88.128906 42.933594 -114.113281 62.789062 -114.113281 C 70.375 -114.113281 77.636719 -112.5 84.738281 -109.273438 C 85.707031 -108.789062 86.675781 -108.304688 87.644531 -107.820312 C 87.804688 -107.820312 87.804688 -107.820312 87.804688 -107.660156 C 95.230469 -103.460938 102.492188 -94.90625 102.492188 -90.710938 C 102.492188 -90.386719 102.65625 -90.066406 102.976562 -90.066406 C 103.300781 -90.066406 103.460938 -90.386719 103.460938 -90.710938 L 103.460938 -112.179688 C 103.460938 -112.5 103.300781 -112.824219 102.976562 -112.824219 C 102.65625 -112.824219 102.492188 -112.5 102.492188 -112.179688 C 102.492188 -109.917969 101.363281 -107.980469 99.425781 -106.851562 C 97.007812 -105.398438 93.453125 -105.882812 89.742188 -107.980469 L 89.097656 -108.304688 C 88.933594 -108.464844 88.613281 -108.628906 88.453125 -108.628906 C 88.289062 -108.789062 88.289062 -108.789062 88.289062 -108.789062 C 87.160156 -109.433594 86.191406 -109.917969 85.222656 -110.242188 C 85.222656 -110.242188 85.0625 -110.402344 85.0625 -110.402344 C 77.960938 -113.632812 70.535156 -115.246094 62.789062 -115.246094 C 31.796875 -115.246094 6.777344 -88.773438 6.777344 -56.167969 C 6.777344 -23.566406 31.796875 2.90625 62.789062 2.90625 C 62.949219 2.90625 63.273438 2.742188 63.273438 2.421875 C 63.273438 2.097656 62.949219 1.777344 62.789062 1.777344 Z M 62.789062 1.777344 "/></g></g></g><g fill="#c2deed" fill-opacity="1"><g transform="translate(120.269373, 222.391827)"><g><path d="M 67.59375 -57.570312 L 32.675781 -82.808594 C 26.449219 -86.785156 22.648438 -93.527344 22.648438 -100.441406 C 22.648438 -112.71875 31.636719 -121.878906 43.910156 -122.226562 C 44.085938 -122.226562 44.429688 -122.226562 44.601562 -122.226562 C 49.960938 -122.226562 55.320312 -121.015625 60.160156 -118.769531 C 60.335938 -118.59375 60.679688 -118.59375 61.027344 -118.421875 C 71.746094 -112.890625 78.3125 -102.515625 78.3125 -91.28125 C 78.3125 -90.933594 78.660156 -90.589844 79.003906 -90.589844 C 79.179688 -90.589844 79.523438 -90.933594 79.523438 -91.28125 L 79.523438 -120.152344 C 79.523438 -120.496094 79.179688 -120.84375 79.003906 -120.84375 C 78.660156 -120.84375 78.3125 -120.496094 78.3125 -120.152344 C 78.3125 -117.730469 77.796875 -116.175781 76.585938 -115.484375 C 73.820312 -113.753906 67.769531 -116.347656 61.542969 -119.460938 C 61.199219 -119.632812 60.851562 -119.804688 60.679688 -119.804688 C 60.507812 -119.804688 60.507812 -119.804688 60.507812 -119.804688 C 55.667969 -122.226562 50.136719 -123.433594 44.601562 -123.433594 C 44.429688 -123.433594 44.085938 -123.433594 43.910156 -123.433594 C 34.75 -123.261719 26.105469 -119.804688 19.707031 -113.753906 C 13.3125 -107.703125 9.679688 -99.75 9.679688 -91.28125 C 9.679688 -80.734375 15.386719 -70.707031 24.894531 -64.828125 L 60.507812 -39.242188 C 67.769531 -35.09375 72.089844 -28.179688 72.089844 -20.574219 C 72.089844 -8.296875 61.199219 1.554688 47.195312 1.902344 C 47.023438 1.902344 46.675781 1.902344 46.503906 1.902344 C 39.761719 1.902344 33.191406 0.347656 27.316406 -2.765625 C 27.140625 -2.765625 27.140625 -2.9375 26.96875 -2.9375 L 26.625 -3.113281 C 16.25 -9.164062 9.855469 -19.191406 9.855469 -30.082031 C 9.855469 -30.425781 9.679688 -30.597656 9.335938 -30.597656 C 8.988281 -30.597656 8.816406 -30.425781 8.816406 -30.082031 L 8.816406 0.171875 C 8.816406 0.347656 8.988281 0.691406 9.335938 0.691406 C 9.679688 0.691406 9.855469 0.347656 9.855469 0.171875 C 9.855469 -3.113281 10.546875 -5.1875 12.101562 -6.050781 C 14.867188 -7.78125 21.089844 -4.839844 26.105469 -2.074219 L 26.277344 -1.902344 C 26.449219 -1.902344 26.625 -1.730469 26.796875 -1.730469 C 32.675781 1.554688 39.589844 3.113281 46.503906 3.113281 C 46.675781 3.113281 47.023438 3.113281 47.195312 3.113281 C 47.367188 3.113281 47.367188 3.113281 47.367188 3.113281 C 57.222656 2.9375 66.558594 -0.519531 73.472656 -6.742188 C 80.386719 -12.964844 84.191406 -21.265625 84.191406 -30.082031 C 84.191406 -41.144531 77.96875 -51.519531 67.59375 -57.570312 Z M 67.59375 -57.570312 "/></g></g></g></svg>