<svg xmlns="http://www.w3.org/2000/svg" xmlns:xlink="http://www.w3.org/1999/xlink" width="500" zoomAndPan="magnify" viewBox="0 0 375 374.999991" height="500" preserveAspectRatio="xMidYMid meet" version="1.0"><defs><g/></defs><g fill="#eba9d1" fill-opacity="1"><g transform="translate(153.307612, 272.657735)"><g><path d="M 110.242188 -56.652344 L 78.765625 -56.652344 C 78.445312 -56.652344 78.28125 -56.332031 78.28125 -56.007812 C 78.28125 -55.847656 78.445312 -55.523438 78.765625 -55.523438 C 82.480469 -55.523438 85.546875 -52.457031 85.546875 -48.746094 L 85.546875 -3.066406 C 85.546875 -2.90625 85.546875 -2.742188 85.707031 -2.582031 C 85.867188 -2.582031 86.03125 -2.421875 86.03125 -2.421875 C 86.191406 -2.421875 86.191406 -2.582031 86.351562 -2.582031 C 92.808594 -5.648438 98.457031 -10.007812 103.460938 -15.496094 C 103.460938 -15.65625 103.460938 -15.816406 103.460938 -15.816406 L 103.460938 -48.746094 C 103.460938 -52.457031 106.527344 -55.523438 110.242188 -55.523438 C 110.5625 -55.523438 110.726562 -55.847656 110.726562 -56.007812 C 110.726562 -56.332031 110.5625 -56.652344 110.242188 -56.652344 Z M 62.789062 1.777344 C 42.933594 1.777344 26.792969 -24.210938 26.792969 -56.167969 C 26.792969 -88.128906 42.933594 -114.113281 62.789062 -114.113281 C 70.375 -114.113281 77.636719 -112.5 84.738281 -109.273438 C 85.707031 -108.789062 86.675781 -108.304688 87.644531 -107.820312 C 87.804688 -107.820312 87.804688 -107.820312 87.804688 -107.660156 C 95.230469 -103.460938 102.492188 -94.90625 102.492188 -90.710938 C 102.492188 -90.386719 102.65625 -90.066406 102.976562 -90.066406 C 103.300781 -90.066406 103.460938 -90.386719 103.460938 -90.710938 L 103.460938 -112.179688 C 103.460938 -112.5 103.300781 -112.824219 102.976562 -112.824219 C 102.65625 -112.824219 102.492188 -112.5 102.492188 -112.179688 C 102.492188 -109.917969 101.363281 -107.980469 99.425781 -106.851562 C 97.007812 -105.398438 93.453125 -105.882812 89.742188 -107.980469 L 89.097656 -108.304688 C 88.933594 -108.464844 88.613281 -108.628906 88.453125 -108.628906 C 88.289062 -108.789062 88.289062 -108.789062 88.289062 -108.789062 C 87.160156 -109.433594 86.191406 -109.917969 85.222656 -110.242188 C 85.222656 -110.242188 85.0625 -110.402344 85.0625 -110.402344 C 77.960938 -113.632812 70.535156 -115.246094 62.789062 -115.246094 C 31.796875 -115.246094 6.777344 -88.773438 6.777344 -56.167969 C 6.777344 -23.566406 31.796875 2.90625 62.789062 2.90625 C 62.949219 2.90625 63.273438 2.742188 63.273438 2.421875 C 63.273438 2.097656 62.949219 1.777344 62.789062 1.777344 Z M 62.789062 1.777344 "/></g></g></g><g fill="#ad9551" fill-opacity="1"><g transform="translate(138.896507, 293.075227)"><g><path d="M 2.765625 0.046875 C 2.296875 0.046875 1.847656 -0.0234375 1.421875 -0.171875 C 0.992188 -0.316406 0.660156 -0.515625 0.421875 -0.765625 L 0.6875 -1.28125 C 0.914062 -1.050781 1.21875 -0.863281 1.59375 -0.71875 C 1.96875 -0.582031 2.359375 -0.515625 2.765625 -0.515625 C 3.328125 -0.515625 3.75 -0.617188 4.03125 -0.828125 C 4.3125 -1.035156 4.453125 -1.300781 4.453125 -1.625 C 4.453125 -1.875 4.375 -2.070312 4.21875 -2.21875 C 4.070312 -2.375 3.882812 -2.492188 3.65625 -2.578125 C 3.4375 -2.660156 3.128906 -2.75 2.734375 -2.84375 C 2.265625 -2.96875 1.882812 -3.082031 1.59375 -3.1875 C 1.3125 -3.300781 1.070312 -3.472656 0.875 -3.703125 C 0.675781 -3.929688 0.578125 -4.238281 0.578125 -4.625 C 0.578125 -4.945312 0.660156 -5.238281 0.828125 -5.5 C 0.992188 -5.757812 1.25 -5.96875 1.59375 -6.125 C 1.945312 -6.28125 2.378906 -6.359375 2.890625 -6.359375 C 3.253906 -6.359375 3.609375 -6.304688 3.953125 -6.203125 C 4.296875 -6.109375 4.59375 -5.972656 4.84375 -5.796875 L 4.625 -5.265625 C 4.363281 -5.441406 4.082031 -5.570312 3.78125 -5.65625 C 3.476562 -5.738281 3.179688 -5.78125 2.890625 -5.78125 C 2.335938 -5.78125 1.921875 -5.671875 1.640625 -5.453125 C 1.367188 -5.242188 1.234375 -4.972656 1.234375 -4.640625 C 1.234375 -4.390625 1.304688 -4.1875 1.453125 -4.03125 C 1.609375 -3.882812 1.800781 -3.769531 2.03125 -3.6875 C 2.269531 -3.601562 2.582031 -3.515625 2.96875 -3.421875 C 3.425781 -3.304688 3.796875 -3.191406 4.078125 -3.078125 C 4.367188 -2.972656 4.613281 -2.804688 4.8125 -2.578125 C 5.007812 -2.347656 5.109375 -2.046875 5.109375 -1.671875 C 5.109375 -1.347656 5.019531 -1.054688 4.84375 -0.796875 C 4.675781 -0.535156 4.414062 -0.328125 4.0625 -0.171875 C 3.707031 -0.0234375 3.273438 0.046875 2.765625 0.046875 Z M 2.765625 0.046875 "/></g></g></g><g fill="#ad9551" fill-opacity="1"><g transform="translate(147.302518, 293.075227)"><g><path d="M 5.484375 -0.578125 L 5.484375 0 L 1.03125 0 L 1.03125 -6.296875 L 5.34375 -6.296875 L 5.34375 -5.71875 L 1.6875 -5.71875 L 1.6875 -3.484375 L 4.953125 -3.484375 L 4.953125 -2.921875 L 1.6875 -2.921875 L 1.6875 -0.578125 Z M 5.484375 -0.578125 "/></g></g></g><g fill="#ad9551" fill-opacity="1"><g transform="translate(156.194535, 293.075227)"><g><path d="M 6.296875 -6.296875 L 6.296875 0 L 5.734375 0 L 1.6875 -5.109375 L 1.6875 0 L 1.03125 0 L 1.03125 -6.296875 L 1.578125 -6.296875 L 5.640625 -1.1875 L 5.640625 -6.296875 Z M 6.296875 -6.296875 "/></g></g></g><g fill="#ad9551" fill-opacity="1"><g transform="translate(166.382557, 293.075227)"><g><path d="M 4.984375 -1.6875 L 1.46875 -1.6875 L 0.71875 0 L 0.015625 0 L 2.890625 -6.296875 L 3.5625 -6.296875 L 6.4375 0 L 5.734375 0 Z M 4.734375 -2.21875 L 3.21875 -5.609375 L 1.703125 -2.21875 Z M 4.734375 -2.21875 "/></g></g></g><g fill="#ad9551" fill-opacity="1"><g transform="translate(175.706574, 293.075227)"><g><path d="M 1.03125 -6.296875 L 1.6875 -6.296875 L 1.6875 0 L 1.03125 0 Z M 1.03125 -6.296875 "/></g></g></g><g fill="#ad9551" fill-opacity="1"><g transform="translate(181.295573, 293.075227)"><g><path d="M 2.25 -5.71875 L 0.03125 -5.71875 L 0.03125 -6.296875 L 5.125 -6.296875 L 5.125 -5.71875 L 2.921875 -5.71875 L 2.921875 0 L 2.25 0 Z M 2.25 -5.71875 "/></g></g></g><g fill="#ad9551" fill-opacity="1"><g transform="translate(189.332584, 293.075227)"><g/></g></g><g fill="#ad9551" fill-opacity="1"><g transform="translate(194.56159, 293.075227)"><g><path d="M 5.46875 -3.15625 L 6.109375 -3.15625 L 6.109375 -0.75 C 5.804688 -0.488281 5.453125 -0.289062 5.046875 -0.15625 C 4.648438 -0.0195312 4.226562 0.046875 3.78125 0.046875 C 3.15625 0.046875 2.585938 -0.0859375 2.078125 -0.359375 C 1.578125 -0.640625 1.179688 -1.019531 0.890625 -1.5 C 0.609375 -1.988281 0.46875 -2.539062 0.46875 -3.15625 C 0.46875 -3.757812 0.609375 -4.304688 0.890625 -4.796875 C 1.179688 -5.285156 1.578125 -5.664062 2.078125 -5.9375 C 2.585938 -6.21875 3.160156 -6.359375 3.796875 -6.359375 C 4.273438 -6.359375 4.710938 -6.28125 5.109375 -6.125 C 5.515625 -5.96875 5.859375 -5.738281 6.140625 -5.4375 L 5.71875 -5.015625 C 5.226562 -5.515625 4.597656 -5.765625 3.828125 -5.765625 C 3.316406 -5.765625 2.851562 -5.648438 2.4375 -5.421875 C 2.03125 -5.191406 1.707031 -4.878906 1.46875 -4.484375 C 1.238281 -4.085938 1.125 -3.644531 1.125 -3.15625 C 1.125 -2.65625 1.238281 -2.207031 1.46875 -1.8125 C 1.707031 -1.414062 2.03125 -1.101562 2.4375 -0.875 C 2.84375 -0.65625 3.300781 -0.546875 3.8125 -0.546875 C 4.457031 -0.546875 5.007812 -0.707031 5.46875 -1.03125 Z M 5.46875 -3.15625 "/></g></g></g><g fill="#ad9551" fill-opacity="1"><g transform="translate(204.389606, 293.075227)"><g><path d="M 6.296875 -6.296875 L 6.296875 0 L 5.640625 0 L 5.640625 -2.90625 L 1.6875 -2.90625 L 1.6875 0 L 1.03125 0 L 1.03125 -6.296875 L 1.6875 -6.296875 L 1.6875 -3.484375 L 5.640625 -3.484375 L 5.640625 -6.296875 Z M 6.296875 -6.296875 "/></g></g></g><g fill="#ad9551" fill-opacity="1"><g transform="translate(214.57763, 293.075227)"><g><path d="M 1.03125 -6.296875 L 1.6875 -6.296875 L 1.6875 0 L 1.03125 0 Z M 1.03125 -6.296875 "/></g></g></g><g fill="#ad9551" fill-opacity="1"><g transform="translate(220.166631, 293.075227)"><g><path d="M 5.328125 0 L 3.890625 -2.03125 C 3.722656 -2.007812 3.554688 -2 3.390625 -2 L 1.6875 -2 L 1.6875 0 L 1.03125 0 L 1.03125 -6.296875 L 3.390625 -6.296875 C 4.191406 -6.296875 4.816406 -6.101562 5.265625 -5.71875 C 5.722656 -5.332031 5.953125 -4.804688 5.953125 -4.140625 C 5.953125 -3.648438 5.828125 -3.234375 5.578125 -2.890625 C 5.335938 -2.554688 4.984375 -2.3125 4.515625 -2.15625 L 6.0625 0 Z M 3.359375 -2.5625 C 3.984375 -2.5625 4.460938 -2.695312 4.796875 -2.96875 C 5.128906 -3.25 5.296875 -3.640625 5.296875 -4.140625 C 5.296875 -4.648438 5.128906 -5.039062 4.796875 -5.3125 C 4.460938 -5.582031 3.984375 -5.71875 3.359375 -5.71875 L 1.6875 -5.71875 L 1.6875 -2.5625 Z M 3.359375 -2.5625 "/></g></g></g><g fill="#ad9551" fill-opacity="1"><g transform="translate(229.544645, 293.075227)"><g><path d="M 7.5625 -6.296875 L 7.5625 0 L 6.9375 0 L 6.9375 -5.046875 L 4.453125 -0.796875 L 4.140625 -0.796875 L 1.671875 -5.015625 L 1.671875 0 L 1.03125 0 L 1.03125 -6.296875 L 1.578125 -6.296875 L 4.3125 -1.625 L 7.015625 -6.296875 Z M 7.5625 -6.296875 "/></g></g></g><g fill="#ad9551" fill-opacity="1"><g transform="translate(241.010672, 293.075227)"><g><path d="M 4.984375 -1.6875 L 1.46875 -1.6875 L 0.71875 0 L 0.015625 0 L 2.890625 -6.296875 L 3.5625 -6.296875 L 6.4375 0 L 5.734375 0 Z M 4.734375 -2.21875 L 3.21875 -5.609375 L 1.703125 -2.21875 Z M 4.734375 -2.21875 "/></g></g></g><g fill="#ad9551" fill-opacity="1"><g transform="translate(250.334692, 293.075227)"><g><path d="M 3.1875 -2.171875 L 3.1875 0 L 2.53125 0 L 2.53125 -2.171875 L 0.015625 -6.296875 L 0.71875 -6.296875 L 2.875 -2.765625 L 5.046875 -6.296875 L 5.703125 -6.296875 Z M 3.1875 -2.171875 "/></g></g></g><g fill="#c2deed" fill-opacity="1"><g transform="translate(120.269373, 222.391827)"><g><path d="M 67.59375 -57.570312 L 32.675781 -82.808594 C 26.449219 -86.785156 22.648438 -93.527344 22.648438 -100.441406 C 22.648438 -112.71875 31.636719 -121.878906 43.910156 -122.226562 C 44.085938 -122.226562 44.429688 -122.226562 44.601562 -122.226562 C 49.960938 -122.226562 55.320312 -121.015625 60.160156 -118.769531 C 60.335938 -118.59375 60.679688 -118.59375 61.027344 -118.421875 C 71.746094 -112.890625 78.3125 -102.515625 78.3125 -91.28125 C 78.3125 -90.933594 78.660156 -90.589844 79.003906 -90.589844 C 79.179688 -90.589844 79.523438 -90.933594 79.523438 -91.28125 L 79.523438 -120.152344 C 79.523438 -120.496094 79.179688 -120.84375 79.003906 -120.84375 C 78.660156 -120.84375 78.3125 -120.496094 78.3125 -120.152344 C 78.3125 -117.730469 77.796875 -116.175781 76.585938 -115.484375 C 73.820312 -113.753906 67.769531 -116.347656 61.542969 -119.460938 C 61.199219 -119.632812 60.851562 -119.804688 60.679688 -119.804688 C 60.507812 -119.804688 60.507812 -119.804688 60.507812 -119.804688 C 55.667969 -122.226562 50.136719 -123.433594 44.601562 -123.433594 C 44.429688 -123.433594 44.085938 -123.433594 43.910156 -123.433594 C 34.75 -123.261719 26.105469 -119.804688 19.707031 -113.753906 C 13.3125 -107.703125 9.679688 -99.75 9.679688 -91.28125 C 9.679688 -80.734375 15.386719 -70.707031 24.894531 -64.828125 L 60.507812 -39.242188 C 67.769531 -35.09375 72.089844 -28.179688 72.089844 -20.574219 C 72.089844 -8.296875 61.199219 1.554688 47.195312 1.902344 C 47.023438 1.902344 46.675781 1.902344 46.503906 1.902344 C 39.761719 1.902344 33.191406 0.347656 27.316406 -2.765625 C 27.140625 -2.765625 27.140625 -2.9375 26.96875 -2.9375 L 26.625 -3.113281 C 16.25 -9.164062 9.855469 -19.191406 9.855469 -30.082031 C 9.855469 -30.425781 9.679688 -30.597656 9.335938 -30.597656 C 8.988281 -30.597656 8.816406 -30.425781 8.816406 -30.082031 L 8.816406 0.171875 C 8.816406 0.347656 8.988281 0.691406 9.335938 0.691406 C 9.679688 0.691406 9.855469 0.347656 9.855469 0.171875 C 9.855469 -3.113281 10.546875 -5.1875 12.101562 -6.050781 C 14.867188 -7.78125 21.089844 -4.839844 26.105469 -2.074219 L 26.277344 -1.902344 C 26.449219 -1.902344 26.625 -1.730469 26.796875 -1.730469 C 32.675781 1.554688 39.589844 3.113281 46.503906 3.113281 C 46.675781 3.113281 47.023438 3.113281 47.195312 3.113281 C 47.367188 3.113281 47.367188 3.113281 47.367188 3.113281 C 57.222656 2.9375 66.558594 -0.519531 73.472656 -6.742188 C 80.386719 -12.964844 84.191406 -21.265625 84.191406 -30.082031 C 84.191406 -41.144531 77.96875 -51.519531 67.59375 -57.570312 Z M 67.59375 -57.570312 "/></g></g></g></svg>