<svg xmlns="http://www.w3.org/2000/svg" xmlns:xlink="http://www.w3.org/1999/xlink" width="500" zoomAndPan="magnify" viewBox="0 0 375 374.999991" height="500" preserveAspectRatio="xMidYMid meet" version="1.0"><defs><g/></defs><g fill="#52554b" fill-opacity="1"><g transform="translate(161.549055, 219.155033)"><g><path d="M 117.445312 -60.355469 L 83.914062 -60.355469 C 83.570312 -60.355469 83.398438 -60.011719 83.398438 -59.667969 C 83.398438 -59.496094 83.570312 -59.152344 83.914062 -59.152344 C 87.867188 -59.152344 91.136719 -55.882812 91.136719 -51.929688 L 91.136719 -3.265625 C 91.136719 -3.09375 91.136719 -2.921875 91.308594 -2.75 C 91.480469 -2.75 91.652344 -2.578125 91.652344 -2.578125 C 91.824219 -2.578125 91.824219 -2.75 91.996094 -2.75 C 98.871094 -6.019531 104.890625 -10.660156 110.222656 -16.507812 C 110.222656 -16.679688 110.222656 -16.851562 110.222656 -16.851562 L 110.222656 -51.929688 C 110.222656 -55.882812 113.488281 -59.152344 117.445312 -59.152344 C 117.789062 -59.152344 117.960938 -59.496094 117.960938 -59.667969 C 117.960938 -60.011719 117.789062 -60.355469 117.445312 -60.355469 Z M 66.890625 1.890625 C 45.738281 1.890625 28.542969 -25.792969 28.542969 -59.839844 C 28.542969 -93.886719 45.738281 -121.570312 66.890625 -121.570312 C 74.972656 -121.570312 82.710938 -119.851562 90.273438 -116.410156 C 91.308594 -115.894531 92.339844 -115.378906 93.371094 -114.863281 C 93.542969 -114.863281 93.542969 -114.863281 93.542969 -114.691406 C 101.453125 -110.222656 109.191406 -101.109375 109.191406 -96.636719 C 109.191406 -96.292969 109.363281 -95.949219 109.707031 -95.949219 C 110.050781 -95.949219 110.222656 -96.292969 110.222656 -96.636719 L 110.222656 -119.507812 C 110.222656 -119.851562 110.050781 -120.195312 109.707031 -120.195312 C 109.363281 -120.195312 109.191406 -119.851562 109.191406 -119.507812 C 109.191406 -117.101562 107.984375 -115.035156 105.921875 -113.832031 C 103.34375 -112.285156 99.558594 -112.800781 95.605469 -115.035156 L 94.917969 -115.378906 C 94.746094 -115.550781 94.402344 -115.722656 94.230469 -115.722656 C 94.058594 -115.894531 94.058594 -115.894531 94.058594 -115.894531 C 92.855469 -116.582031 91.824219 -117.101562 90.789062 -117.445312 C 90.789062 -117.445312 90.617188 -117.617188 90.617188 -117.617188 C 83.054688 -121.054688 75.144531 -122.773438 66.890625 -122.773438 C 33.875 -122.773438 7.222656 -94.574219 7.222656 -59.839844 C 7.222656 -25.105469 33.875 3.09375 66.890625 3.09375 C 67.0625 3.09375 67.40625 2.921875 67.40625 2.578125 C 67.40625 2.234375 67.0625 1.890625 66.890625 1.890625 Z M 66.890625 1.890625 "/></g></g></g><g fill="#52554b" fill-opacity="1"><g transform="translate(95.971104, 218.884414)"><g><path d="M 69.128906 -58.875 L 33.417969 -84.691406 C 27.050781 -88.757812 23.160156 -95.652344 23.160156 -102.722656 C 23.160156 -115.277344 32.355469 -124.648438 44.910156 -125 C 45.085938 -125 45.4375 -125 45.617188 -125 C 51.097656 -125 56.578125 -123.761719 61.527344 -121.464844 C 61.703125 -121.289062 62.058594 -121.289062 62.414062 -121.113281 C 73.375 -115.453125 80.09375 -104.84375 80.09375 -93.351562 C 80.09375 -93 80.445312 -92.644531 80.800781 -92.644531 C 80.976562 -92.644531 81.332031 -93 81.332031 -93.351562 L 81.332031 -122.878906 C 81.332031 -123.234375 80.976562 -123.585938 80.800781 -123.585938 C 80.445312 -123.585938 80.09375 -123.234375 80.09375 -122.878906 C 80.09375 -120.402344 79.5625 -118.8125 78.324219 -118.105469 C 75.496094 -116.335938 69.308594 -118.988281 62.941406 -122.171875 C 62.589844 -122.347656 62.234375 -122.527344 62.058594 -122.527344 C 61.882812 -122.527344 61.882812 -122.527344 61.882812 -122.527344 C 56.929688 -125 51.273438 -126.238281 45.617188 -126.238281 C 45.4375 -126.238281 45.085938 -126.238281 44.910156 -126.238281 C 35.539062 -126.0625 26.699219 -122.527344 20.15625 -116.335938 C 13.613281 -110.148438 9.902344 -102.015625 9.902344 -93.351562 C 9.902344 -82.566406 15.734375 -72.3125 25.460938 -66.300781 L 61.882812 -40.132812 C 69.308594 -35.890625 73.726562 -28.820312 73.726562 -21.039062 C 73.726562 -8.488281 62.589844 1.589844 48.269531 1.945312 C 48.089844 1.945312 47.738281 1.945312 47.558594 1.945312 C 40.664062 1.945312 33.945312 0.355469 27.933594 -2.828125 C 27.757812 -2.828125 27.757812 -3.003906 27.582031 -3.003906 L 27.226562 -3.183594 C 16.621094 -9.371094 10.078125 -19.625 10.078125 -30.765625 C 10.078125 -31.117188 9.902344 -31.292969 9.546875 -31.292969 C 9.195312 -31.292969 9.015625 -31.117188 9.015625 -30.765625 L 9.015625 0.175781 C 9.015625 0.355469 9.195312 0.707031 9.546875 0.707031 C 9.902344 0.707031 10.078125 0.355469 10.078125 0.175781 C 10.078125 -3.183594 10.785156 -5.304688 12.375 -6.1875 C 15.207031 -7.957031 21.570312 -4.949219 26.699219 -2.121094 L 26.875 -1.945312 C 27.050781 -1.945312 27.226562 -1.769531 27.40625 -1.769531 C 33.417969 1.589844 40.488281 3.183594 47.558594 3.183594 C 47.738281 3.183594 48.089844 3.183594 48.269531 3.183594 C 48.445312 3.183594 48.445312 3.183594 48.445312 3.183594 C 58.523438 3.003906 68.070312 -0.53125 75.140625 -6.894531 C 82.214844 -13.261719 86.105469 -21.746094 86.105469 -30.765625 C 86.105469 -42.078125 79.738281 -52.6875 69.128906 -58.875 Z M 69.128906 -58.875 "/></g></g></g></svg>